<mxfile host="app.diagrams.net" modified="2024-06-22T17:53:06.396Z" agent="Mozilla/5.0 (Windows NT 10.0; Win64; x64) AppleWebKit/537.36 (KHTML, like Gecko) Chrome/126.0.0.0 Safari/537.36" version="24.4.13" etag="84VVwJ2NgHHCN9FawPTj" type="github">
  <diagram name="Page-1" id="I5Y5_pWLb8d0-yoVa0vO">
    <mxGraphModel>
      <root>
        <mxCell id="0" />
        <mxCell id="1" parent="0" />
      </root>
    </mxGraphModel>
  </diagram>
</mxfile>
